<svg xmlns="http://www.w3.org/2000/svg" width="99.561" height="85.12" viewBox="0 0 99.561 85.12">
  <g id="Group_26" data-name="Group 26" transform="matrix(-0.839, -0.545, 0.545, -0.839, 747.894, 903.468)">
    <path id="Path_5" data-name="Path 5" d="M2746.484,190.688s11.123-13.369,21.295,0,17.955,6.068,23.228,0,17.932-5.088,22.333,0,12.985,9.9,22.984,0" transform="translate(-1737 150.339)" fill="none" stroke="#707070" stroke-width="2"/>
    <path id="Path_9" data-name="Path 9" d="M2746.484,190.688s11.123-13.369,21.295,0,17.955,6.068,23.228,0,17.932-5.088,22.333,0,12.985,9.9,22.984,0" transform="translate(-1737 137)" fill="none" stroke="#707070" stroke-width="2"/>
    <path id="Path_13" data-name="Path 13" d="M2746.484,190.688s11.123-13.369,21.295,0,17.955,6.068,23.228,0,17.932-5.088,22.333,0,12.985,9.9,22.984,0" transform="translate(-1737 163.677)" fill="none" stroke="#707070" stroke-width="2"/>
  </g>
</svg>
